<mxfile host="app.diagrams.net" modified="2023-02-10T02:12:14.272Z" agent="5.0 (Windows NT 10.0; Win64; x64) AppleWebKit/537.36 (KHTML, like Gecko) Chrome/108.0.0.0 Safari/537.36 OPR/94.0.0.0" etag="gXSoWtGvVUEvAlQrsi3b" version="20.8.18" type="github">
  <diagram name="Page-1" id="WxX2U7t7JJW4sILFboa8">
    <mxGraphModel dx="2014" dy="1862" grid="1" gridSize="10" guides="1" tooltips="1" connect="1" arrows="1" fold="1" page="1" pageScale="1" pageWidth="827" pageHeight="1169" math="0" shadow="0">
      <root>
        <mxCell id="0" />
        <mxCell id="1" parent="0" />
        <mxCell id="mNZpbNywiu51gnxmWAtp-1" value="frère" style="rounded=0;whiteSpace=wrap;html=1;" vertex="1" parent="1">
          <mxGeometry x="179" y="240" width="120" height="60" as="geometry" />
        </mxCell>
        <mxCell id="mNZpbNywiu51gnxmWAtp-2" value="fraternité" style="rounded=0;whiteSpace=wrap;html=1;" vertex="1" parent="1">
          <mxGeometry x="335" y="40" width="120" height="60" as="geometry" />
        </mxCell>
        <mxCell id="mNZpbNywiu51gnxmWAtp-3" value="conseil exécutif" style="rounded=0;whiteSpace=wrap;html=1;" vertex="1" parent="1">
          <mxGeometry x="490" y="240" width="120" height="60" as="geometry" />
        </mxCell>
        <mxCell id="mNZpbNywiu51gnxmWAtp-4" value="composé de&amp;nbsp;" style="rhombus;whiteSpace=wrap;html=1;" vertex="1" parent="1">
          <mxGeometry x="340" y="250" width="110" height="40" as="geometry" />
        </mxCell>
        <mxCell id="mNZpbNywiu51gnxmWAtp-5" value="" style="endArrow=none;html=1;rounded=0;entryX=0;entryY=0.5;entryDx=0;entryDy=0;" edge="1" parent="1" target="mNZpbNywiu51gnxmWAtp-4">
          <mxGeometry width="50" height="50" relative="1" as="geometry">
            <mxPoint x="300" y="270" as="sourcePoint" />
            <mxPoint x="440" y="280" as="targetPoint" />
          </mxGeometry>
        </mxCell>
        <mxCell id="mNZpbNywiu51gnxmWAtp-6" value="" style="endArrow=none;html=1;rounded=0;exitX=1;exitY=0.5;exitDx=0;exitDy=0;entryX=0;entryY=0.5;entryDx=0;entryDy=0;shape=link;" edge="1" parent="1" source="mNZpbNywiu51gnxmWAtp-4" target="mNZpbNywiu51gnxmWAtp-3">
          <mxGeometry width="50" height="50" relative="1" as="geometry">
            <mxPoint x="390" y="330" as="sourcePoint" />
            <mxPoint x="440" y="280" as="targetPoint" />
          </mxGeometry>
        </mxCell>
        <mxCell id="mNZpbNywiu51gnxmWAtp-7" value="" style="endArrow=none;html=1;rounded=0;exitX=0.35;exitY=0.993;exitDx=0;exitDy=0;entryX=0.5;entryY=0;entryDx=0;entryDy=0;exitPerimeter=0;" edge="1" parent="1" source="mNZpbNywiu51gnxmWAtp-2" target="mNZpbNywiu51gnxmWAtp-8">
          <mxGeometry width="50" height="50" relative="1" as="geometry">
            <mxPoint x="390" y="330" as="sourcePoint" />
            <mxPoint x="460" y="110" as="targetPoint" />
          </mxGeometry>
        </mxCell>
        <mxCell id="mNZpbNywiu51gnxmWAtp-8" value="contient" style="rhombus;whiteSpace=wrap;html=1;" vertex="1" parent="1">
          <mxGeometry x="214" y="120" width="50" height="80" as="geometry" />
        </mxCell>
        <mxCell id="mNZpbNywiu51gnxmWAtp-9" value="" style="endArrow=none;html=1;rounded=0;exitX=0.5;exitY=0;exitDx=0;exitDy=0;" edge="1" parent="1" source="mNZpbNywiu51gnxmWAtp-1" target="mNZpbNywiu51gnxmWAtp-8">
          <mxGeometry width="50" height="50" relative="1" as="geometry">
            <mxPoint x="390" y="230" as="sourcePoint" />
            <mxPoint x="440" y="180" as="targetPoint" />
          </mxGeometry>
        </mxCell>
        <mxCell id="mNZpbNywiu51gnxmWAtp-10" value="" style="endArrow=none;dashed=1;html=1;rounded=0;entryX=0.536;entryY=1.031;entryDx=0;entryDy=0;entryPerimeter=0;exitX=0.58;exitY=0.076;exitDx=0;exitDy=0;exitPerimeter=0;" edge="1" parent="1" source="mNZpbNywiu51gnxmWAtp-8" target="mNZpbNywiu51gnxmWAtp-2">
          <mxGeometry width="50" height="50" relative="1" as="geometry">
            <mxPoint x="390" y="230" as="sourcePoint" />
            <mxPoint x="440" y="180" as="targetPoint" />
          </mxGeometry>
        </mxCell>
        <mxCell id="mNZpbNywiu51gnxmWAtp-11" value="dirigé par" style="rhombus;whiteSpace=wrap;html=1;" vertex="1" parent="1">
          <mxGeometry x="530" y="120" width="40" height="80" as="geometry" />
        </mxCell>
        <mxCell id="mNZpbNywiu51gnxmWAtp-12" value="" style="endArrow=none;html=1;rounded=0;entryX=0.5;entryY=0;entryDx=0;entryDy=0;" edge="1" parent="1" target="mNZpbNywiu51gnxmWAtp-11">
          <mxGeometry width="50" height="50" relative="1" as="geometry">
            <mxPoint x="400" y="100" as="sourcePoint" />
            <mxPoint x="440" y="170" as="targetPoint" />
          </mxGeometry>
        </mxCell>
        <mxCell id="mNZpbNywiu51gnxmWAtp-13" value="" style="endArrow=none;html=1;rounded=0;entryX=0.5;entryY=1;entryDx=0;entryDy=0;exitX=0.5;exitY=0;exitDx=0;exitDy=0;" edge="1" parent="1" source="mNZpbNywiu51gnxmWAtp-3" target="mNZpbNywiu51gnxmWAtp-11">
          <mxGeometry width="50" height="50" relative="1" as="geometry">
            <mxPoint x="390" y="220" as="sourcePoint" />
            <mxPoint x="440" y="170" as="targetPoint" />
          </mxGeometry>
        </mxCell>
        <mxCell id="mNZpbNywiu51gnxmWAtp-17" value="rôle" style="text;html=1;strokeColor=none;fillColor=none;align=center;verticalAlign=middle;whiteSpace=wrap;rounded=0;" vertex="1" parent="1">
          <mxGeometry x="520" y="340" width="60" height="30" as="geometry" />
        </mxCell>
        <mxCell id="mNZpbNywiu51gnxmWAtp-18" value="" style="endArrow=none;html=1;rounded=0;entryX=0.5;entryY=1;entryDx=0;entryDy=0;exitX=0.5;exitY=0;exitDx=0;exitDy=0;" edge="1" parent="1" source="mNZpbNywiu51gnxmWAtp-17" target="mNZpbNywiu51gnxmWAtp-3">
          <mxGeometry width="50" height="50" relative="1" as="geometry">
            <mxPoint x="370" y="260" as="sourcePoint" />
            <mxPoint x="420" y="210" as="targetPoint" />
          </mxGeometry>
        </mxCell>
        <mxCell id="mNZpbNywiu51gnxmWAtp-20" value="nom" style="text;html=1;strokeColor=none;fillColor=none;align=center;verticalAlign=middle;whiteSpace=wrap;rounded=0;" vertex="1" parent="1">
          <mxGeometry x="-10" y="360" width="60" height="30" as="geometry" />
        </mxCell>
        <mxCell id="mNZpbNywiu51gnxmWAtp-21" value="prenom" style="text;html=1;strokeColor=none;fillColor=none;align=center;verticalAlign=middle;whiteSpace=wrap;rounded=0;" vertex="1" parent="1">
          <mxGeometry x="50" y="360" width="60" height="30" as="geometry" />
        </mxCell>
        <mxCell id="mNZpbNywiu51gnxmWAtp-22" value="branche" style="text;html=1;strokeColor=none;fillColor=none;align=center;verticalAlign=middle;whiteSpace=wrap;rounded=0;" vertex="1" parent="1">
          <mxGeometry x="110" y="360" width="60" height="30" as="geometry" />
        </mxCell>
        <mxCell id="mNZpbNywiu51gnxmWAtp-23" value="cycle d&#39;étude" style="text;html=1;strokeColor=none;fillColor=none;align=center;verticalAlign=middle;whiteSpace=wrap;rounded=0;" vertex="1" parent="1">
          <mxGeometry x="170" y="360" width="60" height="30" as="geometry" />
        </mxCell>
        <mxCell id="mNZpbNywiu51gnxmWAtp-24" value="moyenne générale" style="text;html=1;strokeColor=none;fillColor=none;align=center;verticalAlign=middle;whiteSpace=wrap;rounded=0;" vertex="1" parent="1">
          <mxGeometry x="239" y="360" width="60" height="30" as="geometry" />
        </mxCell>
        <mxCell id="mNZpbNywiu51gnxmWAtp-25" value="majeure assigné" style="text;html=1;strokeColor=none;fillColor=none;align=center;verticalAlign=middle;whiteSpace=wrap;rounded=0;" vertex="1" parent="1">
          <mxGeometry x="299" y="360" width="60" height="30" as="geometry" />
        </mxCell>
        <mxCell id="mNZpbNywiu51gnxmWAtp-26" value="payé cotisation" style="text;html=1;strokeColor=none;fillColor=none;align=center;verticalAlign=middle;whiteSpace=wrap;rounded=0;" vertex="1" parent="1">
          <mxGeometry x="365" y="360" width="60" height="30" as="geometry" />
        </mxCell>
        <mxCell id="mNZpbNywiu51gnxmWAtp-27" value="évènement" style="rounded=0;whiteSpace=wrap;html=1;" vertex="1" parent="1">
          <mxGeometry x="-110" y="40" width="120" height="60" as="geometry" />
        </mxCell>
        <mxCell id="mNZpbNywiu51gnxmWAtp-28" value="organise" style="rhombus;whiteSpace=wrap;html=1;" vertex="1" parent="1">
          <mxGeometry x="160" y="50" width="80" height="40" as="geometry" />
        </mxCell>
        <mxCell id="mNZpbNywiu51gnxmWAtp-30" value="" style="endArrow=none;dashed=1;html=1;rounded=0;shape=link;entryX=1;entryY=0.5;entryDx=0;entryDy=0;exitX=0;exitY=0.5;exitDx=0;exitDy=0;" edge="1" parent="1" source="mNZpbNywiu51gnxmWAtp-2" target="mNZpbNywiu51gnxmWAtp-28">
          <mxGeometry width="50" height="50" relative="1" as="geometry">
            <mxPoint x="260" y="30" as="sourcePoint" />
            <mxPoint x="250" y="70" as="targetPoint" />
          </mxGeometry>
        </mxCell>
        <mxCell id="mNZpbNywiu51gnxmWAtp-31" value="" style="endArrow=none;html=1;rounded=0;entryX=1;entryY=0.5;entryDx=0;entryDy=0;" edge="1" parent="1" target="mNZpbNywiu51gnxmWAtp-27">
          <mxGeometry width="50" height="50" relative="1" as="geometry">
            <mxPoint x="160" y="70" as="sourcePoint" />
            <mxPoint x="60" y="70" as="targetPoint" />
          </mxGeometry>
        </mxCell>
        <mxCell id="mNZpbNywiu51gnxmWAtp-33" value="cotisation" style="text;html=1;strokeColor=none;fillColor=none;align=center;verticalAlign=middle;whiteSpace=wrap;rounded=0;" vertex="1" parent="1">
          <mxGeometry x="440" y="-30" width="60" height="30" as="geometry" />
        </mxCell>
        <mxCell id="mNZpbNywiu51gnxmWAtp-34" value="participe" style="rhombus;whiteSpace=wrap;html=1;" vertex="1" parent="1">
          <mxGeometry x="30" y="170" width="80" height="40" as="geometry" />
        </mxCell>
        <mxCell id="mNZpbNywiu51gnxmWAtp-36" value="" style="endArrow=none;dashed=1;html=1;rounded=0;exitX=0;exitY=0.5;exitDx=0;exitDy=0;entryX=0.5;entryY=1;entryDx=0;entryDy=0;shape=link;" edge="1" parent="1" source="mNZpbNywiu51gnxmWAtp-1" target="mNZpbNywiu51gnxmWAtp-34">
          <mxGeometry width="50" height="50" relative="1" as="geometry">
            <mxPoint x="370" y="240" as="sourcePoint" />
            <mxPoint x="420" y="190" as="targetPoint" />
          </mxGeometry>
        </mxCell>
        <mxCell id="mNZpbNywiu51gnxmWAtp-38" value="" style="endArrow=none;html=1;rounded=0;entryX=0.5;entryY=1;entryDx=0;entryDy=0;exitX=0.5;exitY=0;exitDx=0;exitDy=0;" edge="1" parent="1" source="mNZpbNywiu51gnxmWAtp-34" target="mNZpbNywiu51gnxmWAtp-27">
          <mxGeometry width="50" height="50" relative="1" as="geometry">
            <mxPoint x="370" y="240" as="sourcePoint" />
            <mxPoint x="420" y="190" as="targetPoint" />
          </mxGeometry>
        </mxCell>
        <mxCell id="mNZpbNywiu51gnxmWAtp-39" value="" style="endArrow=none;dashed=1;html=1;rounded=0;exitX=0.403;exitY=0.04;exitDx=0;exitDy=0;exitPerimeter=0;entryX=0.448;entryY=1.033;entryDx=0;entryDy=0;entryPerimeter=0;" edge="1" parent="1" source="mNZpbNywiu51gnxmWAtp-34" target="mNZpbNywiu51gnxmWAtp-27">
          <mxGeometry width="50" height="50" relative="1" as="geometry">
            <mxPoint x="280" y="240" as="sourcePoint" />
            <mxPoint x="330" y="190" as="targetPoint" />
          </mxGeometry>
        </mxCell>
        <mxCell id="mNZpbNywiu51gnxmWAtp-40" value="" style="endArrow=none;html=1;rounded=0;exitX=0.5;exitY=1;exitDx=0;exitDy=0;entryX=0.5;entryY=0;entryDx=0;entryDy=0;" edge="1" parent="1" source="mNZpbNywiu51gnxmWAtp-1" target="mNZpbNywiu51gnxmWAtp-20">
          <mxGeometry width="50" height="50" relative="1" as="geometry">
            <mxPoint x="280" y="240" as="sourcePoint" />
            <mxPoint x="330" y="190" as="targetPoint" />
          </mxGeometry>
        </mxCell>
        <mxCell id="mNZpbNywiu51gnxmWAtp-41" value="" style="endArrow=none;html=1;rounded=0;entryX=0.5;entryY=0;entryDx=0;entryDy=0;" edge="1" parent="1" target="mNZpbNywiu51gnxmWAtp-21">
          <mxGeometry width="50" height="50" relative="1" as="geometry">
            <mxPoint x="240" y="300" as="sourcePoint" />
            <mxPoint x="330" y="190" as="targetPoint" />
          </mxGeometry>
        </mxCell>
        <mxCell id="mNZpbNywiu51gnxmWAtp-42" value="" style="endArrow=none;html=1;rounded=0;exitX=0.5;exitY=1;exitDx=0;exitDy=0;entryX=0.5;entryY=0;entryDx=0;entryDy=0;" edge="1" parent="1" source="mNZpbNywiu51gnxmWAtp-1" target="mNZpbNywiu51gnxmWAtp-22">
          <mxGeometry width="50" height="50" relative="1" as="geometry">
            <mxPoint x="280" y="240" as="sourcePoint" />
            <mxPoint x="330" y="190" as="targetPoint" />
          </mxGeometry>
        </mxCell>
        <mxCell id="mNZpbNywiu51gnxmWAtp-43" value="" style="endArrow=none;html=1;rounded=0;exitX=0.5;exitY=1;exitDx=0;exitDy=0;entryX=0.5;entryY=0;entryDx=0;entryDy=0;" edge="1" parent="1" source="mNZpbNywiu51gnxmWAtp-1" target="mNZpbNywiu51gnxmWAtp-23">
          <mxGeometry width="50" height="50" relative="1" as="geometry">
            <mxPoint x="280" y="240" as="sourcePoint" />
            <mxPoint x="330" y="190" as="targetPoint" />
          </mxGeometry>
        </mxCell>
        <mxCell id="mNZpbNywiu51gnxmWAtp-44" value="" style="endArrow=none;html=1;rounded=0;exitX=0.5;exitY=1;exitDx=0;exitDy=0;entryX=0.5;entryY=0;entryDx=0;entryDy=0;" edge="1" parent="1" source="mNZpbNywiu51gnxmWAtp-1" target="mNZpbNywiu51gnxmWAtp-24">
          <mxGeometry width="50" height="50" relative="1" as="geometry">
            <mxPoint x="280" y="240" as="sourcePoint" />
            <mxPoint x="330" y="190" as="targetPoint" />
          </mxGeometry>
        </mxCell>
        <mxCell id="mNZpbNywiu51gnxmWAtp-45" value="" style="endArrow=none;html=1;rounded=0;exitX=0.5;exitY=1;exitDx=0;exitDy=0;entryX=0.5;entryY=0;entryDx=0;entryDy=0;" edge="1" parent="1" source="mNZpbNywiu51gnxmWAtp-1" target="mNZpbNywiu51gnxmWAtp-25">
          <mxGeometry width="50" height="50" relative="1" as="geometry">
            <mxPoint x="280" y="240" as="sourcePoint" />
            <mxPoint x="330" y="190" as="targetPoint" />
          </mxGeometry>
        </mxCell>
        <mxCell id="mNZpbNywiu51gnxmWAtp-46" value="" style="endArrow=none;html=1;rounded=0;exitX=0.5;exitY=1;exitDx=0;exitDy=0;entryX=0.5;entryY=0;entryDx=0;entryDy=0;" edge="1" parent="1" source="mNZpbNywiu51gnxmWAtp-1" target="mNZpbNywiu51gnxmWAtp-26">
          <mxGeometry width="50" height="50" relative="1" as="geometry">
            <mxPoint x="240" y="310" as="sourcePoint" />
            <mxPoint x="330" y="190" as="targetPoint" />
          </mxGeometry>
        </mxCell>
        <mxCell id="mNZpbNywiu51gnxmWAtp-47" value="" style="endArrow=none;html=1;rounded=0;entryX=0.5;entryY=1;entryDx=0;entryDy=0;exitX=0.5;exitY=0;exitDx=0;exitDy=0;" edge="1" parent="1" source="mNZpbNywiu51gnxmWAtp-2" target="mNZpbNywiu51gnxmWAtp-33">
          <mxGeometry width="50" height="50" relative="1" as="geometry">
            <mxPoint x="280" y="240" as="sourcePoint" />
            <mxPoint x="330" y="190" as="targetPoint" />
          </mxGeometry>
        </mxCell>
        <mxCell id="mNZpbNywiu51gnxmWAtp-48" value="nom fraternité" style="text;html=1;strokeColor=none;fillColor=none;align=center;verticalAlign=middle;whiteSpace=wrap;rounded=0;" vertex="1" parent="1">
          <mxGeometry x="310" y="-30" width="60" height="30" as="geometry" />
        </mxCell>
        <mxCell id="mNZpbNywiu51gnxmWAtp-49" value="" style="endArrow=none;html=1;rounded=0;exitX=0.5;exitY=1;exitDx=0;exitDy=0;entryX=0.5;entryY=0;entryDx=0;entryDy=0;" edge="1" parent="1" source="mNZpbNywiu51gnxmWAtp-48" target="mNZpbNywiu51gnxmWAtp-2">
          <mxGeometry width="50" height="50" relative="1" as="geometry">
            <mxPoint x="280" y="230" as="sourcePoint" />
            <mxPoint x="330" y="180" as="targetPoint" />
          </mxGeometry>
        </mxCell>
        <mxCell id="mNZpbNywiu51gnxmWAtp-50" value="type" style="text;html=1;strokeColor=none;fillColor=none;align=center;verticalAlign=middle;whiteSpace=wrap;rounded=0;" vertex="1" parent="1">
          <mxGeometry x="-170" y="-20" width="60" height="30" as="geometry" />
        </mxCell>
        <mxCell id="mNZpbNywiu51gnxmWAtp-51" value="lieu" style="text;html=1;strokeColor=none;fillColor=none;align=center;verticalAlign=middle;whiteSpace=wrap;rounded=0;" vertex="1" parent="1">
          <mxGeometry x="-110" y="-20" width="60" height="30" as="geometry" />
        </mxCell>
        <mxCell id="mNZpbNywiu51gnxmWAtp-52" value="date" style="text;html=1;strokeColor=none;fillColor=none;align=center;verticalAlign=middle;whiteSpace=wrap;rounded=0;" vertex="1" parent="1">
          <mxGeometry x="-50" y="-20" width="60" height="30" as="geometry" />
        </mxCell>
        <mxCell id="mNZpbNywiu51gnxmWAtp-53" value="nom" style="text;html=1;strokeColor=none;fillColor=none;align=center;verticalAlign=middle;whiteSpace=wrap;rounded=0;" vertex="1" parent="1">
          <mxGeometry x="10" y="-20" width="60" height="30" as="geometry" />
        </mxCell>
        <mxCell id="mNZpbNywiu51gnxmWAtp-54" value="sponsorisé par" style="rhombus;whiteSpace=wrap;html=1;" vertex="1" parent="1">
          <mxGeometry x="-260" y="45" width="100" height="50" as="geometry" />
        </mxCell>
        <mxCell id="mNZpbNywiu51gnxmWAtp-55" value="sponsor" style="rounded=0;whiteSpace=wrap;html=1;" vertex="1" parent="1">
          <mxGeometry x="-450" y="40" width="120" height="60" as="geometry" />
        </mxCell>
        <mxCell id="mNZpbNywiu51gnxmWAtp-56" value="nom" style="text;html=1;strokeColor=none;fillColor=none;align=center;verticalAlign=middle;whiteSpace=wrap;rounded=0;" vertex="1" parent="1">
          <mxGeometry x="-420" y="-90" width="60" height="30" as="geometry" />
        </mxCell>
        <mxCell id="mNZpbNywiu51gnxmWAtp-57" value="info de base" style="text;html=1;strokeColor=none;fillColor=none;align=center;verticalAlign=middle;whiteSpace=wrap;rounded=0;" vertex="1" parent="1">
          <mxGeometry x="-420" y="-30" width="60" height="30" as="geometry" />
        </mxCell>
        <mxCell id="mNZpbNywiu51gnxmWAtp-58" value="" style="endArrow=none;html=1;rounded=0;exitX=0.5;exitY=0;exitDx=0;exitDy=0;entryX=0.5;entryY=1;entryDx=0;entryDy=0;" edge="1" parent="1" source="mNZpbNywiu51gnxmWAtp-55" target="mNZpbNywiu51gnxmWAtp-57">
          <mxGeometry width="50" height="50" relative="1" as="geometry">
            <mxPoint x="-120" y="110" as="sourcePoint" />
            <mxPoint x="-70" y="60" as="targetPoint" />
          </mxGeometry>
        </mxCell>
        <mxCell id="mNZpbNywiu51gnxmWAtp-59" value="" style="endArrow=none;html=1;rounded=0;exitX=0.5;exitY=0;exitDx=0;exitDy=0;entryX=0.5;entryY=1;entryDx=0;entryDy=0;" edge="1" parent="1" source="mNZpbNywiu51gnxmWAtp-57" target="mNZpbNywiu51gnxmWAtp-56">
          <mxGeometry width="50" height="50" relative="1" as="geometry">
            <mxPoint x="-120" y="110" as="sourcePoint" />
            <mxPoint x="-70" y="60" as="targetPoint" />
          </mxGeometry>
        </mxCell>
        <mxCell id="mNZpbNywiu51gnxmWAtp-61" value="" style="endArrow=none;dashed=1;html=1;rounded=0;shape=link;exitX=1;exitY=0.5;exitDx=0;exitDy=0;entryX=0;entryY=0.5;entryDx=0;entryDy=0;" edge="1" parent="1" source="mNZpbNywiu51gnxmWAtp-54" target="mNZpbNywiu51gnxmWAtp-27">
          <mxGeometry width="50" height="50" relative="1" as="geometry">
            <mxPoint x="-120" y="110" as="sourcePoint" />
            <mxPoint x="-70" y="60" as="targetPoint" />
          </mxGeometry>
        </mxCell>
        <mxCell id="mNZpbNywiu51gnxmWAtp-62" value="" style="endArrow=none;html=1;rounded=0;entryX=0.036;entryY=0.573;entryDx=0;entryDy=0;entryPerimeter=0;" edge="1" parent="1" target="mNZpbNywiu51gnxmWAtp-54">
          <mxGeometry width="50" height="50" relative="1" as="geometry">
            <mxPoint x="-330" y="74" as="sourcePoint" />
            <mxPoint x="-70" y="60" as="targetPoint" />
          </mxGeometry>
        </mxCell>
        <mxCell id="mNZpbNywiu51gnxmWAtp-63" value="" style="endArrow=none;dashed=1;html=1;rounded=0;exitX=1;exitY=0.5;exitDx=0;exitDy=0;" edge="1" parent="1" source="mNZpbNywiu51gnxmWAtp-55">
          <mxGeometry width="50" height="50" relative="1" as="geometry">
            <mxPoint x="-720" y="40" as="sourcePoint" />
            <mxPoint x="-260" y="70" as="targetPoint" />
          </mxGeometry>
        </mxCell>
        <mxCell id="mNZpbNywiu51gnxmWAtp-64" value="" style="endArrow=none;html=1;rounded=0;entryX=0.5;entryY=1;entryDx=0;entryDy=0;exitX=0.5;exitY=0;exitDx=0;exitDy=0;" edge="1" parent="1" source="mNZpbNywiu51gnxmWAtp-27" target="mNZpbNywiu51gnxmWAtp-50">
          <mxGeometry width="50" height="50" relative="1" as="geometry">
            <mxPoint x="-350" y="220" as="sourcePoint" />
            <mxPoint x="-300" y="170" as="targetPoint" />
          </mxGeometry>
        </mxCell>
        <mxCell id="mNZpbNywiu51gnxmWAtp-65" value="" style="endArrow=none;html=1;rounded=0;entryX=0.5;entryY=1;entryDx=0;entryDy=0;exitX=0.5;exitY=0;exitDx=0;exitDy=0;" edge="1" parent="1" source="mNZpbNywiu51gnxmWAtp-27" target="mNZpbNywiu51gnxmWAtp-51">
          <mxGeometry width="50" height="50" relative="1" as="geometry">
            <mxPoint x="-350" y="220" as="sourcePoint" />
            <mxPoint x="-300" y="170" as="targetPoint" />
          </mxGeometry>
        </mxCell>
        <mxCell id="mNZpbNywiu51gnxmWAtp-66" value="" style="endArrow=none;html=1;rounded=0;entryX=0.5;entryY=1;entryDx=0;entryDy=0;" edge="1" parent="1" target="mNZpbNywiu51gnxmWAtp-52">
          <mxGeometry width="50" height="50" relative="1" as="geometry">
            <mxPoint x="-50" y="40" as="sourcePoint" />
            <mxPoint x="-300" y="170" as="targetPoint" />
          </mxGeometry>
        </mxCell>
        <mxCell id="mNZpbNywiu51gnxmWAtp-67" value="" style="endArrow=none;html=1;rounded=0;entryX=0.5;entryY=1;entryDx=0;entryDy=0;exitX=0.5;exitY=0;exitDx=0;exitDy=0;" edge="1" parent="1" source="mNZpbNywiu51gnxmWAtp-27" target="mNZpbNywiu51gnxmWAtp-53">
          <mxGeometry width="50" height="50" relative="1" as="geometry">
            <mxPoint x="-350" y="220" as="sourcePoint" />
            <mxPoint x="-300" y="170" as="targetPoint" />
          </mxGeometry>
        </mxCell>
      </root>
    </mxGraphModel>
  </diagram>
</mxfile>
